<svg width="334" height="50" viewBox="0 0 334 50" fill="none" xmlns="http://www.w3.org/2000/svg">
<path d="M5.856 39.648C3.712 39.648 2.192 39.04 1.296 37.824C0.432003 36.576 2.86102e-06 34.704 2.86102e-06 32.208C2.86102e-06 30.608 0.256003 28.208 0.768003 25.008C1.312 21.776 2.064 17.504 3.024 12.192L0.480003 7.056C1.984 6.096 3.584 5.28 5.28 4.608C6.976 3.904 8.672 3.552 10.368 3.552C11.872 3.552 12.864 4 13.344 4.896C13.824 5.792 14.064 6.848 14.064 8.064C14.064 8.608 13.952 9.504 13.728 10.752C13.536 11.968 13.28 13.376 12.96 14.976C12.672 16.576 12.368 18.208 12.048 19.872H22.8C22.992 18.752 23.2 17.552 23.424 16.272C23.68 14.992 23.936 13.632 24.192 12.192L21.648 7.056C23.152 6.096 24.752 5.28 26.448 4.608C28.144 3.904 29.84 3.552 31.536 3.552C33.04 3.552 34.032 4 34.512 4.896C34.992 5.792 35.232 6.848 35.232 8.064C35.232 8.576 35.136 9.408 34.944 10.56C34.784 11.68 34.56 12.992 34.272 14.496C33.984 15.968 33.68 17.52 33.36 19.152C33.072 20.752 32.784 22.32 32.496 23.856C32.208 25.36 31.968 26.704 31.776 27.888C31.616 29.04 31.536 29.92 31.536 30.528C31.536 32.16 31.648 33.536 31.872 34.656C32.128 35.776 32.496 36.72 32.976 37.488C31.056 38.928 29.072 39.648 27.024 39.648C24.88 39.648 23.36 39.04 22.464 37.824C21.6 36.576 21.168 34.704 21.168 32.208C21.168 31.472 21.216 30.56 21.312 29.472C21.44 28.352 21.616 27.056 21.84 25.584H10.992C10.8 26.672 10.64 27.664 10.512 28.56C10.416 29.424 10.368 30.08 10.368 30.528C10.368 32.16 10.48 33.536 10.704 34.656C10.96 35.776 11.328 36.72 11.808 37.488C9.888 38.928 7.904 39.648 5.856 39.648ZM47.3865 39.6C45.4025 39.6 43.8505 39.248 42.7305 38.544C41.6425 37.872 40.8745 36.96 40.4265 35.808C40.0105 34.624 39.8025 33.296 39.8025 31.824C39.8025 30.128 39.9785 28.352 40.3305 26.496C40.6825 24.608 41.0345 22.784 41.3865 21.024C41.7385 19.232 41.9145 17.664 41.9145 16.32C41.9145 14.336 41.5785 12.88 40.9065 11.952C42.2185 11.248 43.5785 10.688 44.9865 10.272C46.4265 9.824 47.5785 9.6 48.4425 9.6C49.7545 9.6 50.6985 9.872 51.2745 10.416C51.8825 10.928 52.1865 11.792 52.1865 13.008C52.1865 13.68 52.0905 14.608 51.8985 15.792C51.7065 16.944 51.4665 18.208 51.1785 19.584C50.8905 20.96 50.5865 22.352 50.2665 23.76C49.9785 25.136 49.7385 26.384 49.5465 27.504C49.3545 28.624 49.2585 29.504 49.2585 30.144C49.2585 31.328 49.5625 32.224 50.1705 32.832C50.8105 33.44 51.5785 33.744 52.4745 33.744C53.4985 33.744 54.5705 33.36 55.6905 32.592C56.8105 31.824 57.7385 30.704 58.4745 29.232C58.6025 28.528 58.7625 27.648 58.9545 26.592C59.1785 25.536 59.4185 24.416 59.6745 23.232C59.9625 22.016 60.2185 20.864 60.4425 19.776C60.6985 18.656 60.9225 17.712 61.1145 16.944L58.2345 13.104C59.6105 12.112 61.0825 11.28 62.6505 10.608C64.2185 9.936 65.8185 9.6 67.4505 9.6C68.8905 9.6 69.9145 9.872 70.5225 10.416C71.1625 10.928 71.4825 11.792 71.4825 13.008C71.4825 13.68 71.3545 14.608 71.0985 15.792C70.8745 16.976 70.5865 18.304 70.2345 19.776C69.9145 21.216 69.5785 22.72 69.2265 24.288C68.8745 25.856 68.5705 27.392 68.3145 28.896C68.0905 30.368 67.9785 31.696 67.9785 32.88C67.9785 33.84 68.0905 34.704 68.3145 35.472C68.5705 36.208 68.9545 36.8 69.4665 37.248C67.6745 38.816 65.7705 39.6 63.7545 39.6C61.7065 39.6 60.2825 39.136 59.4825 38.208C58.6825 37.28 58.2825 36.176 58.2825 34.896L57.8025 34.656C56.7465 36.224 55.2745 37.44 53.3865 38.304C51.4985 39.168 49.4985 39.6 47.3865 39.6ZM83.1788 49.68C80.9708 49.68 79.1148 49.2 77.6108 48.24C76.1068 47.28 75.3548 45.936 75.3548 44.208C75.3548 43.504 75.4988 42.752 75.7868 41.952C76.0748 41.152 76.5228 40.304 77.1308 39.408C77.8668 40.464 78.7468 41.264 79.7708 41.808C80.7948 42.384 81.8348 42.672 82.8908 42.672C84.1388 42.672 85.3388 42.256 86.4908 41.424C87.6428 40.592 88.5708 39.264 89.2748 37.44C88.4748 37.728 87.7228 37.936 87.0188 38.064C86.3148 38.192 85.6428 38.256 85.0028 38.256C83.3388 38.256 81.9948 37.824 80.9708 36.96C79.9468 36.064 79.3548 34.784 79.1948 33.12C78.9708 31.008 78.8268 28.816 78.7628 26.544C78.6988 24.272 78.5708 22.208 78.3788 20.352C78.1548 18.176 77.6908 16.368 76.9868 14.928C76.2828 13.488 75.4668 12.4 74.5388 11.664C75.3068 10.96 76.1068 10.448 76.9388 10.128C77.8028 9.776 78.8908 9.6 80.2028 9.6C81.8028 9.6 83.0988 10.08 84.0908 11.04C85.1148 12 85.8988 13.36 86.4428 15.12C86.9868 16.848 87.3548 18.88 87.5468 21.216C87.7708 23.52 87.8828 26.032 87.8828 28.752C87.8828 29.136 87.8668 29.728 87.8348 30.528C87.8348 31.328 87.8028 32.128 87.7388 32.928H90.5228C91.0348 31.52 91.5788 30.016 92.1548 28.416C92.7308 26.816 93.2588 25.2 93.7388 23.568C94.2508 21.904 94.6668 20.32 94.9868 18.816C95.3068 17.28 95.4668 15.92 95.4668 14.736C95.4668 14.032 95.3868 13.44 95.2268 12.96C95.0988 12.48 94.9388 12.048 94.7468 11.664C95.8668 10.96 96.9708 10.448 98.0588 10.128C99.1468 9.776 100.123 9.6 100.987 9.6C102.459 9.6 103.531 10.096 104.203 11.088C104.907 12.08 105.259 13.376 105.259 14.976C105.259 16.16 105.083 17.536 104.731 19.104C104.379 20.64 103.931 22.24 103.387 23.904C102.875 25.536 102.347 27.088 101.803 28.56C101.291 30.032 100.859 31.28 100.507 32.304C98.9708 36.72 97.2428 40.192 95.3228 42.72C93.4348 45.248 91.4508 47.04 89.3708 48.096C87.3228 49.152 85.2588 49.68 83.1788 49.68ZM109.978 19.392L109.258 17.28C110.314 16.768 111.226 16.112 111.994 15.312C112.762 14.48 113.338 13.6 113.722 12.672C114.138 11.712 114.346 10.848 114.346 10.08L110.986 5.76C111.05 4.736 111.354 3.792 111.898 2.928C112.474 2.032 113.226 1.328 114.154 0.815999C115.082 0.272 116.09 9.53674e-07 117.178 9.53674e-07C118.81 9.53674e-07 120.074 0.56 120.97 1.68C121.866 2.8 122.314 4.08 122.314 5.52C122.314 7.696 121.802 9.744 120.778 11.664C119.786 13.584 118.362 15.216 116.506 16.56C114.682 17.904 112.506 18.848 109.978 19.392ZM136.668 39.6C133.66 39.6 131.26 39.36 129.468 38.88C127.708 38.432 126.444 37.808 125.676 37.008C124.908 36.208 124.524 35.328 124.524 34.368C124.524 33.632 124.716 32.784 125.1 31.824C125.516 30.864 126.108 29.952 126.876 29.088C127.42 29.824 128.14 30.512 129.036 31.152C129.964 31.76 130.972 32.256 132.06 32.64C133.148 32.992 134.204 33.168 135.228 33.168C136.348 33.168 137.356 32.912 138.252 32.4C139.148 31.856 139.74 30.944 140.028 29.664C135.1 29.088 131.564 28 129.42 26.4C127.276 24.768 126.204 22.512 126.204 19.632C126.204 17.808 126.636 16.256 127.5 14.976C128.364 13.696 129.516 12.672 130.956 11.904C132.428 11.104 134.092 10.528 135.948 10.176C137.836 9.792 139.788 9.6 141.804 9.6C143.692 9.6 145.372 9.856 146.844 10.368C148.316 10.848 149.468 11.504 150.3 12.336C151.132 13.168 151.548 14.128 151.548 15.216C151.548 16.752 150.988 17.92 149.868 18.72C148.78 19.52 147.532 19.92 146.124 19.92C145.164 19.92 144.156 19.6 143.1 18.96C142.044 18.32 141.196 17.328 140.556 15.984C139.372 16.336 138.428 16.848 137.724 17.52C137.02 18.16 136.396 19.088 135.852 20.304C139.5 20.848 142.396 21.536 144.54 22.368C146.684 23.2 148.22 24.256 149.148 25.536C150.108 26.784 150.588 28.336 150.588 30.192C150.588 31.664 150.252 32.944 149.58 34.032C148.94 35.12 148.092 36.016 147.036 36.72C145.98 37.424 144.828 37.984 143.58 38.4C142.332 38.848 141.1 39.152 139.884 39.312C138.668 39.504 137.596 39.6 136.668 39.6ZM183.679 39.6C180.799 39.6 178.431 39.392 176.575 38.976C174.719 38.592 173.279 38.048 172.255 37.344C171.231 36.64 170.511 35.84 170.095 34.944C169.711 34.016 169.519 33.04 169.519 32.016C169.519 31.056 169.663 30.096 169.951 29.136C170.271 28.176 170.815 27.184 171.583 26.16C172.031 27.088 172.767 27.984 173.791 28.848C174.815 29.712 175.967 30.416 177.247 30.96C178.559 31.504 179.839 31.776 181.087 31.776C182.751 31.776 184.127 31.52 185.215 31.008C186.335 30.464 187.135 29.632 187.615 28.512C182.175 27.776 178.095 26.272 175.375 24C172.655 21.696 171.295 18.992 171.295 15.888C171.295 14.064 171.663 12.464 172.399 11.088C173.167 9.712 174.175 8.56 175.423 7.632C176.671 6.672 178.031 5.904 179.503 5.328C180.975 4.72 182.431 4.288 183.871 4.032C185.311 3.744 186.591 3.6 187.711 3.6C191.775 3.6 194.895 4.08 197.071 5.04C199.279 5.968 200.383 7.616 200.383 9.984C200.383 11.36 200.063 12.512 199.423 13.44C198.815 14.368 197.999 15.072 196.975 15.552C195.983 16 194.895 16.224 193.711 16.224C192.303 16.224 190.927 15.824 189.583 15.024C188.239 14.192 187.295 13.04 186.751 11.568C185.631 11.568 184.527 11.952 183.439 12.72C182.351 13.456 181.647 14.48 181.327 15.792C185.583 16.816 189.007 17.952 191.599 19.2C194.223 20.448 196.127 21.856 197.311 23.424C198.495 24.992 199.087 26.784 199.087 28.8C199.087 31.136 198.399 33.104 197.023 34.704C195.647 36.304 193.791 37.52 191.455 38.352C189.151 39.184 186.559 39.6 183.679 39.6ZM208.806 47.952C206.758 47.952 205.366 47.44 204.63 46.416C203.894 45.392 203.526 43.92 203.526 42C203.526 41.296 203.606 40.208 203.766 38.736C203.926 37.264 204.118 35.584 204.342 33.696C204.598 31.776 204.886 29.792 205.206 27.744C205.526 25.696 205.83 23.728 206.118 21.84C206.438 19.952 206.726 18.304 206.982 16.896L204.294 13.056C205.99 12.064 207.59 11.232 209.094 10.56C210.63 9.888 212.166 9.552 213.702 9.552C215.046 9.552 215.958 10.016 216.438 10.944C216.918 11.84 217.158 12.896 217.158 14.112C217.158 14.464 217.142 14.864 217.11 15.312C217.078 15.728 217.03 16.176 216.966 16.656L217.446 16.896C218.374 14.592 219.718 12.8 221.478 11.52C223.238 10.208 225.254 9.552 227.526 9.552C229.254 9.552 230.71 10.08 231.894 11.136C233.078 12.16 233.974 13.52 234.582 15.216C235.19 16.912 235.494 18.784 235.494 20.832C235.494 22.816 235.11 24.848 234.342 26.928C233.606 28.976 232.47 30.864 230.934 32.592C229.398 34.32 227.462 35.712 225.126 36.768C222.79 37.824 220.022 38.352 216.822 38.352C216.214 38.352 215.622 38.336 215.046 38.304C214.47 38.24 213.846 38.176 213.174 38.112C213.078 39.2 213.03 40.24 213.03 41.232C213.03 42.192 213.142 43.04 213.366 43.776C213.622 44.544 214.006 45.152 214.518 45.6C212.726 47.168 210.822 47.952 208.806 47.952ZM214.038 33.648C216.118 33.584 217.942 33.2 219.51 32.496C221.11 31.76 222.454 30.816 223.542 29.664C224.63 28.48 225.446 27.2 225.99 25.824C226.534 24.448 226.806 23.104 226.806 21.792C226.806 20.32 226.518 19.12 225.942 18.192C225.366 17.264 224.502 16.8 223.35 16.8C222.166 16.8 221.046 17.168 219.99 17.904C218.966 18.608 218.038 19.776 217.206 21.408C216.406 23.04 215.718 25.264 215.142 28.08L214.038 33.648ZM248.532 39.6C246.74 39.6 245.156 39.136 243.78 38.208C242.436 37.28 241.396 35.968 240.66 34.272C239.924 32.576 239.556 30.592 239.556 28.32C239.556 25.664 240.02 23.2 240.948 20.928C241.908 18.656 243.22 16.672 244.884 14.976C246.58 13.28 248.564 11.968 250.836 11.04C253.108 10.08 255.572 9.6 258.228 9.6C258.996 9.6 259.652 9.632 260.196 9.696C260.772 9.728 261.38 9.824 262.02 9.984C262.212 10.88 262.324 11.664 262.356 12.336C263.092 11.856 263.908 11.488 264.804 11.232C265.7 10.944 266.532 10.8 267.3 10.8C269.636 10.8 270.804 12.064 270.804 14.592C270.804 15.424 270.644 16.56 270.324 18C270.036 19.408 269.684 20.976 269.268 22.704C268.884 24.4 268.532 26.144 268.212 27.936C267.924 29.696 267.78 31.344 267.78 32.88C267.78 34.96 268.276 36.416 269.268 37.248C267.476 38.816 265.572 39.6 263.556 39.6C261.7 39.6 260.324 39.024 259.428 37.872C258.564 36.72 258.132 34.928 258.132 32.496L257.652 32.256C256.788 34.56 255.54 36.368 253.908 37.68C252.308 38.96 250.516 39.6 248.532 39.6ZM252.324 30.864C253.572 30.864 254.788 30.416 255.972 29.52C257.156 28.624 258.148 27.392 258.948 25.824C259.076 24.576 259.204 23.408 259.332 22.32C259.492 21.2 259.684 20.016 259.908 18.768C260.164 17.52 260.468 16.048 260.82 14.352C259.188 14.352 257.636 14.672 256.164 15.312C254.724 15.92 253.428 16.768 252.276 17.856C251.124 18.944 250.212 20.192 249.54 21.6C248.9 22.976 248.58 24.432 248.58 25.968C248.58 27.536 248.9 28.752 249.54 29.616C250.212 30.448 251.14 30.864 252.324 30.864ZM288.723 39.6C285.939 39.6 283.523 39.072 281.475 38.016C279.459 36.928 277.891 35.44 276.771 33.552C275.683 31.664 275.139 29.472 275.139 26.976C275.139 24.384 275.603 22.032 276.531 19.92C277.459 17.776 278.771 15.936 280.467 14.4C282.163 12.864 284.131 11.68 286.371 10.848C288.643 10.016 291.091 9.6 293.715 9.6C296.563 9.6 298.755 10.144 300.291 11.232C301.859 12.288 302.643 13.616 302.643 15.216C302.643 16.752 302.083 17.92 300.963 18.72C299.875 19.52 298.627 19.92 297.219 19.92C296.259 19.92 295.251 19.6 294.195 18.96C293.139 18.32 292.291 17.328 291.651 15.984C290.243 16.56 289.043 17.456 288.051 18.672C287.091 19.856 286.355 21.184 285.843 22.656C285.363 24.096 285.123 25.52 285.123 26.928C285.123 28.816 285.523 30.448 286.323 31.824C287.123 33.168 288.307 33.84 289.875 33.84C290.963 33.84 291.955 33.424 292.851 32.592C293.747 31.728 294.195 30.368 294.195 28.512C296.371 28.512 298.083 28.752 299.331 29.232C300.579 29.712 301.203 30.576 301.203 31.824C301.203 32.976 300.691 34.16 299.667 35.376C298.643 36.56 297.203 37.568 295.347 38.4C293.491 39.2 291.283 39.6 288.723 39.6ZM319.477 39.6C316.501 39.6 313.989 39.072 311.941 38.016C309.893 36.96 308.341 35.488 307.285 33.6C306.261 31.68 305.749 29.472 305.749 26.976C305.749 24.384 306.213 22.032 307.141 19.92C308.101 17.776 309.429 15.936 311.125 14.4C312.821 12.864 314.789 11.68 317.029 10.848C319.301 10.016 321.749 9.6 324.373 9.6C327.477 9.6 329.765 10.288 331.237 11.664C332.709 13.04 333.445 14.768 333.445 16.848C333.445 18.64 332.853 20.336 331.669 21.936C330.517 23.504 328.645 24.784 326.053 25.776C323.461 26.736 320.005 27.232 315.685 27.264C315.781 29.312 316.245 30.928 317.077 32.112C317.941 33.264 319.013 33.84 320.293 33.84C320.933 33.84 321.605 33.696 322.309 33.408C323.013 33.088 323.605 32.544 324.085 31.776C324.565 30.976 324.805 29.888 324.805 28.512C326.981 28.512 328.693 28.752 329.941 29.232C331.189 29.712 331.813 30.576 331.813 31.824C331.813 32.976 331.317 34.16 330.325 35.376C329.333 36.56 327.909 37.568 326.053 38.4C324.229 39.2 322.037 39.6 319.477 39.6ZM316.117 23.424C318.453 23.232 320.325 22.8 321.733 22.128C323.141 21.456 324.165 20.688 324.805 19.824C325.445 18.96 325.765 18.16 325.765 17.424C325.765 16.784 325.573 16.256 325.189 15.84C324.805 15.424 324.261 15.216 323.557 15.216C322.405 15.216 321.333 15.616 320.341 16.416C319.349 17.216 318.485 18.256 317.749 19.536C317.045 20.784 316.501 22.08 316.117 23.424Z" fill="white"/>
</svg>
